<?xml version="1.0" encoding="utf-8"?>
<!-- Generator: Adobe Illustrator 27.3.1, SVG Export Plug-In . SVG Version: 6.00 Build 0)  -->
<svg version="1.1" id="Calque_1" xmlns="http://www.w3.org/2000/svg" xmlns:xlink="http://www.w3.org/1999/xlink" x="0px" y="0px"
	 viewBox="0 0 200 200" style="enable-background:new 0 0 200 200;" xml:space="preserve">
<style type="text/css">
	.st0{fill:#E67B00;}
	.st1{fill:#333333;}
	.st2{fill:none;stroke:#E67B00;stroke-width:3;stroke-linejoin:round;stroke-miterlimit:10;}
</style>
<path class="st0" d="M175.2,113.8H167c-0.9,0-1.6-0.7-1.6-1.6V104c0-0.9,0.7-1.6,1.6-1.6h8.2c0.9,0,1.6,0.7,1.6,1.6v8.2
	C176.8,113.1,176.1,113.8,175.2,113.8"/>
<g>
	<path class="st1" d="M127.2,97.1c0-8.8-6.6-15.7-15-15.7c-8.9,0-15.5,7.1-15.5,16.7c0,9.2,6.8,15.8,16.5,15.8c2.1,0,4-0.4,5.8-0.9
		c0,0,3.6-1.1,4.4-1.5s1.2-1.4,0.9-2.3c-0.3-0.9-1.6-4.2-1.6-4.2c-0.3-0.9-1.3-1.3-2.2-1c0,0-4.6,2.1-6.8,2.1
		c-3.6,0-5.9-1.7-7.2-5.4h16.9C126.1,100.7,127.2,99.6,127.2,97.1 M106.1,94.5c1.3-3.9,3.3-5.7,6.3-5.7c1.9,0,3.6,0.9,4.6,2.3
		c0.6,0.9,0.9,1.6,1.3,3.3L106.1,94.5L106.1,94.5z"/>
	<path class="st1" d="M40.8,83.7c0-0.9-0.8-1.7-1.7-1.7h-5.4v-3.1c0-1.6,0.6-2.3,2.3-2.4h3.2c0.9,0,1.7-0.8,1.7-1.7v-4.7
		c0-0.9-0.8-1.7-1.7-1.7h-5c-5.7,0.1-9.5,3.9-9.5,9.5V82h-4.2c-0.9,0-1.7,0.8-1.7,1.7v4.9c0,0.9,0.8,1.7,1.7,1.7h4.2V112
		c0,0.9,0.8,1.7,1.7,1.7h2.8h0.1h0.1h2.8c0.9,0,1.7-0.8,1.7-1.7V90.3h5.5c0.9,0,1.7-0.8,1.7-1.7L40.8,83.7z"/>
	<path class="st1" d="M95.1,81.4h-3c-3.4,0-6.2,3.4-6.2,3.4l0,0v-1.7c0-0.9-0.8-1.7-1.7-1.7h-5.7c-0.9,0-1.7,0.8-1.7,1.7V112
		c0,0.9,0.8,1.7,1.7,1.7h5.7c0.9,0,1.7-0.8,1.7-1.7V96.2c0-1.3,0.1-2.7,1.8-4.3c2.2-2.2,7.4-2.1,7.4-2.1c0.9,0,1.6-0.7,1.6-1.6v-5.3
		C96.7,82.2,96,81.4,95.1,81.4"/>
	<path class="st1" d="M57.6,81.5c-8.9,0-16.2,7.2-16.2,16.2s7.2,16.2,16.2,16.2s16.2-7.2,16.2-16.2S66.5,81.5,57.6,81.5 M57.6,90.5
		c4,0,7.2,3.3,7.2,7.2s-3.3,7.2-7.2,7.2c-4,0-7.2-3.3-7.2-7.2S53.6,90.5,57.6,90.5"/>
	<path class="st1" d="M175.2,97.6c0.9,0,1.7-0.8,1.7-1.7v-4c0-6-4.6-10.5-10.9-10.5c-3.5,0-5.9,1-9.5,4c-1.1-1.4-1.5-1.8-2.5-2.4
		c-1.7-1-4-1.5-6.2-1.5c-3.2,0-5.4,0.9-8,3.1v-1.4c0-0.9-0.8-1.7-1.7-1.7h-5.5c-0.9,0-1.7,0.8-1.7,1.7v5.7l0,0v23.3
		c0,0.9,0.8,1.7,1.7,1.7h5.7c0.9,0,1.7-0.8,1.7-1.7V94.1c0-2.7,2-4.7,4.7-4.7c3,0,4.7,2,4.7,5.6v17.3c0,0.9,0.8,1.7,1.7,1.7h5.7
		c0.9,0,1.7-0.8,1.7-1.7V94.1c0-2.8,2-4.7,4.8-4.7s4.6,1.9,4.6,4.7v2c0,0.9,0.8,1.7,1.7,1.7h2.9"/>
	<g>
		<path class="st1" d="M89.4,35.5c0,1.3-2.8,2.6-5.7,2.6c-2.7,0-4.8-1-6.3-3.1c-1.2-1.6-1.9-3.9-1.9-6.2c0-5.5,3.3-9.3,8.1-9.3
			c2.6,0,5.3,1.4,5.3,2.7c0,0.6-0.4,1-0.9,1c-0.3,0-0.6-0.1-1.1-0.6c-1.1-0.9-1.9-1.2-3.3-1.2c-3.4,0-5.7,3-5.7,7.3
			c0,4.4,2.3,7.4,5.7,7.4c1.2,0,2.2-0.3,3.6-1.2c0.7-0.4,1-0.5,1.3-0.5C89,34.5,89.4,34.9,89.4,35.5z"/>
		<path class="st1" d="M92.9,32c0.1,1.5,0.4,2.3,1.2,3.1c0.7,0.7,1.7,1.1,2.9,1.1c1.4,0,2.4-0.4,3.6-1.3c0.5-0.4,0.7-0.5,1-0.5
			c0.4,0,0.8,0.4,0.8,1c0,1.3-3,2.8-5.6,2.8c-3.7,0-6.2-2.8-6.2-6.9s2.6-7,6.1-7c3.3,0,5.9,2.9,5.9,6.6c0,0.9-0.3,1.3-1.3,1.3h-8.4
			V32z M100.4,30.3c-0.1-2.7-1.5-4.2-3.8-4.2s-3.5,1.4-3.7,4.2H100.4z"/>
		<path class="st1" d="M107.1,25.9c1-1.2,2.2-1.8,3.8-1.8c2.9,0,4.8,2.1,4.8,5.2v7.6c0,0.7-0.4,1.2-1.1,1.2s-1.1-0.5-1.1-1.2v-7.5
			c0-2-1.3-3.4-3.2-3.4c-1.9,0-3.2,1.4-3.2,3.4v7.5c0,0.7-0.4,1.2-1.1,1.2s-1.1-0.5-1.1-1.2V25.3c0-0.7,0.4-1.2,1.1-1.2
			s1.1,0.5,1.1,1.2L107.1,25.9L107.1,25.9z"/>
		<path class="st1" d="M119.4,21.3c0-0.7,0.4-1.2,1.1-1.2s1.1,0.5,1.1,1.2v3h0.9c0.7,0,1.1,0.4,1.1,1s-0.4,1-1.1,1h-0.9V37
			c0,0.7-0.4,1.2-1.1,1.2s-1.1-0.5-1.1-1.2V26.2h-0.9c-0.7,0-1.1-0.4-1.1-1s0.4-1,1.1-1h0.9V21.3z"/>
	</g>
	<g>
		<path class="st1" d="M127.4,26.5c0.8-1.4,2-2.4,3.1-2.4c0.7,0,1.2,0.5,1.2,1.2s-0.4,1-1.4,1.2c-1.9,0.4-3,1.8-3,3.9v6.5
			c0,0.7-0.4,1.2-1.1,1.2s-1.1-0.5-1.1-1.2V25.3c0-0.7,0.4-1.2,1.1-1.2s1.1,0.5,1.1,1.2L127.4,26.5L127.4,26.5z"/>
	</g>
	<g>
		<path class="st1" d="M134.3,32c0.1,1.5,0.4,2.3,1.2,3.1c0.7,0.7,1.7,1.1,2.9,1.1c1.4,0,2.4-0.4,3.6-1.3c0.5-0.4,0.7-0.5,1-0.5
			c0.4,0,0.8,0.4,0.8,1c0,1.3-3,2.8-5.6,2.8c-3.7,0-6.2-2.8-6.2-6.9s2.6-7,6.1-7c3.3,0,5.9,2.9,5.9,6.6c0,0.9-0.3,1.3-1.3,1.3h-8.4
			V32z M141.8,30.3c-0.1-2.7-1.5-4.2-3.8-4.2s-3.5,1.4-3.7,4.2H141.8z"/>
		<path class="st1" d="M161.6,19.3c0-0.7,0.4-1.2,1.1-1.2c0.7,0,1.1,0.5,1.1,1.2v17.6c0,0.7-0.4,1.2-1.1,1.2c-0.7,0-1.1-0.5-1.1-1.2
			v-0.7h-0.1c-0.7,1.3-1.8,1.9-3.6,1.9c-3.4,0-5.9-2.9-5.9-7c0-4,2.5-7,5.8-7c1.5,0,2.8,0.6,3.7,1.9h0.1V19.3z M154.4,31.1
			c0,3.1,1.5,5,3.8,5c2.2,0,3.7-2,3.7-5c0-3.1-1.5-5.1-3.8-5.1C155.8,26.1,154.4,28.1,154.4,31.1z"/>
		<path class="st1" d="M168.4,32c0.1,1.5,0.4,2.3,1.2,3.1c0.7,0.7,1.7,1.1,2.9,1.1c1.4,0,2.4-0.4,3.6-1.3c0.5-0.4,0.7-0.5,1-0.5
			c0.4,0,0.8,0.4,0.8,1c0,1.3-3,2.8-5.6,2.8c-3.7,0-6.2-2.8-6.2-6.9s2.6-7,6.1-7c3.3,0,5.9,2.9,5.9,6.6c0,0.9-0.3,1.3-1.3,1.3h-8.4
			V32z M175.9,30.3c-0.1-2.7-1.5-4.2-3.8-4.2s-3.5,1.4-3.7,4.2H175.9z"/>
	</g>
	<g>
		<path class="st1" d="M57.2,50.5c0,0.5-0.4,1-1,1c-0.2,0-0.5-0.1-0.9-0.3c-0.7-0.3-1.1-0.4-1.8-0.4c-2.4,0-3.9,2-3.9,5s1.6,5,3.9,5
			c0.7,0,1.2-0.1,1.9-0.5c0.4-0.2,0.6-0.3,0.8-0.3c0.5,0,0.9,0.4,0.9,0.9c0,1-1.5,1.8-3.5,1.8c-3.7,0-6.2-2.8-6.2-6.9
			c0-4.3,2.5-7,6.2-7C55.7,48.8,57.2,49.5,57.2,50.5z"/>
		<path class="st1" d="M70.8,55.8c0,4.1-2.5,7-6,7s-6-2.9-6-6.9c0-4.1,2.5-7,6-7C68.3,48.8,70.8,51.7,70.8,55.8z M61,55.7
			c0,3.1,1.5,5.1,3.8,5.1s3.8-2,3.8-5s-1.5-5-3.8-5C62.5,50.7,61,52.7,61,55.7z"/>
	</g>
	<g>
		<path class="st1" d="M74.9,50.4c1-1.2,1.9-1.7,3.4-1.7c1.6,0,2.8,0.7,3.8,2.3c1.2-1.7,2.4-2.3,4.1-2.3c2.9,0,4.8,2,4.8,5.2v7.6
			c0,0.7-0.4,1.2-1.1,1.2s-1.1-0.5-1.1-1.2v-7.6c0-2-1.1-3.2-2.9-3.2S83,51.9,83,53.9v7.6c0,0.7-0.4,1.2-1.1,1.2s-1.1-0.5-1.1-1.2
			v-7.6c0-2-1.1-3.2-2.9-3.2S75,51.9,75,53.9v7.6c0,0.7-0.4,1.2-1.1,1.2s-1.1-0.5-1.1-1.2V50c0-0.7,0.4-1.2,1.1-1.2S75,49.3,75,50
			L74.9,50.4L74.9,50.4z"/>
		<path class="st1" d="M96.3,66.9c0,0.7-0.4,1.2-1.1,1.2s-1.1-0.5-1.1-1.2V50c0-0.7,0.4-1.2,1.1-1.2s1.1,0.5,1.1,1.2v0.7h0.1
			c0.7-1.3,1.8-1.9,3.6-1.9c3.4,0,5.9,2.9,5.9,7c0,4-2.5,7-5.8,7c-1.5,0-2.8-0.6-3.7-1.9h-0.1V66.9z M96.1,55.7
			c0,3.1,1.5,5.1,3.8,5.1c2.2,0,3.7-2,3.7-5s-1.5-5-3.8-5C97.6,50.7,96.1,52.7,96.1,55.7z"/>
		<path class="st1" d="M109.7,56.6c0.1,1.5,0.4,2.3,1.2,3.1c0.7,0.7,1.7,1.1,2.9,1.1c1.4,0,2.4-0.4,3.6-1.3c0.5-0.4,0.7-0.5,1-0.5
			c0.4,0,0.8,0.4,0.8,1c0,1.3-3,2.8-5.6,2.8c-3.7,0-6.2-2.8-6.2-6.9s2.6-7,6.1-7c3.3,0,5.9,2.9,5.9,6.6c0,0.9-0.3,1.3-1.3,1.3h-8.4
			V56.6z M117.2,54.9c-0.1-2.7-1.5-4.2-3.8-4.2s-3.5,1.4-3.7,4.2H117.2z M112.5,46.8c-0.5,0.2-0.6,0.2-0.9,0.2c-0.5,0-1-0.5-1-1.1
			c0-0.4,0.3-0.7,0.9-0.9l3-1.2c0.4-0.2,0.6-0.2,0.8-0.2c0.5,0,1,0.5,1,1.1c0,0.4-0.3,0.7-0.9,0.9L112.5,46.8z"/>
		<path class="st1" d="M122.4,46c0-0.7,0.4-1.2,1.1-1.2s1.1,0.5,1.1,1.2v3h0.9c0.7,0,1.1,0.4,1.1,1s-0.4,1-1.1,1h-0.9v10.7
			c0,0.7-0.4,1.2-1.1,1.2s-1.1-0.5-1.1-1.2V50.9h-0.9c-0.7,0-1.1-0.4-1.1-1s0.4-1,1.1-1h0.9V46z"/>
		<path class="st1" d="M129.7,56.6c0.1,1.5,0.4,2.3,1.2,3.1c0.7,0.7,1.7,1.1,2.9,1.1c1.4,0,2.4-0.4,3.6-1.3c0.5-0.4,0.7-0.5,1-0.5
			c0.4,0,0.8,0.4,0.8,1c0,1.3-3,2.8-5.6,2.8c-3.7,0-6.2-2.8-6.2-6.9s2.6-7,6.1-7c3.3,0,5.9,2.9,5.9,6.6c0,0.9-0.3,1.3-1.3,1.3h-8.4
			V56.6z M137.2,54.9c-0.1-2.7-1.5-4.2-3.8-4.2s-3.5,1.4-3.7,4.2H137.2z"/>
		<path class="st1" d="M143.9,50.6c1-1.2,2.2-1.8,3.8-1.8c2.9,0,4.8,2.1,4.8,5.2v7.6c0,0.7-0.4,1.2-1.1,1.2c-0.7,0-1.1-0.5-1.1-1.2
			v-7.5c0-2-1.3-3.4-3.2-3.4s-3.2,1.4-3.2,3.4v7.5c0,0.7-0.4,1.2-1.1,1.2c-0.7,0-1.1-0.5-1.1-1.2V50c0-0.7,0.4-1.2,1.1-1.2
			c0.7,0,1.1,0.5,1.1,1.2V50.6L143.9,50.6z"/>
	</g>
	<g>
		<path class="st1" d="M164.6,50.5c0,0.5-0.4,1-1,1c-0.2,0-0.5-0.1-0.9-0.3c-0.7-0.3-1.1-0.4-1.8-0.4c-2.4,0-3.9,2-3.9,5
			s1.6,5,3.9,5c0.7,0,1.2-0.1,1.9-0.5c0.4-0.2,0.6-0.3,0.8-0.3c0.5,0,0.9,0.4,0.9,0.9c0,1-1.5,1.8-3.5,1.8c-3.7,0-6.2-2.8-6.2-6.9
			c0-4.3,2.5-7,6.2-7C163.1,48.8,164.6,49.5,164.6,50.5z"/>
		<path class="st1" d="M168.2,56.6c0.1,1.5,0.4,2.3,1.2,3.1c0.7,0.7,1.7,1.1,2.9,1.1c1.4,0,2.4-0.4,3.6-1.3c0.5-0.4,0.7-0.5,1-0.5
			c0.4,0,0.8,0.4,0.8,1c0,1.3-3,2.8-5.6,2.8c-3.7,0-6.2-2.8-6.2-6.9s2.6-7,6.1-7c3.3,0,5.9,2.9,5.9,6.6c0,0.9-0.3,1.3-1.3,1.3h-8.4
			V56.6z M175.7,54.9c-0.1-2.7-1.5-4.2-3.8-4.2s-3.5,1.4-3.7,4.2H175.7z"/>
	</g>
</g>
<line class="st2" x1="18.7" y1="130.1" x2="178.3" y2="130.3"/>
<g>
	<path class="st0" d="M50.2,154.4c1,0.6,1.6,1.6,1.6,2.7c0,1.4-1,2.6-2.3,2.6c-0.5,0-0.7,0-2.1-0.6c-0.8-0.3-1.5-0.4-2.1-0.4
		c-2.5,0-4.3,2.1-4.3,5.1s1.8,5,4.5,5c0.7,0,1.5-0.2,2.3-0.6c1-0.5,1.2-0.5,1.7-0.5c1.4,0,2.4,1.2,2.4,2.7c0,0.8-0.4,1.6-1.1,2.2
		c-1.4,1-3.7,1.7-5.9,1.7c-2.9,0-5.3-1-7.1-3c-1.9-2-2.7-4.3-2.7-7.6c0-3.2,1.1-6,3-7.8c1.9-1.7,4.5-2.7,7-2.7
		C47,153.2,48.9,153.6,50.2,154.4z"/>
	<path class="st0" d="M60,165.7c0.9,2.4,2.4,3.5,4.7,3.5c1.4,0,1.8-0.1,4.8-1.6c0.4-0.2,0.8-0.3,1.3-0.3c1.2,0,2.4,1.2,2.4,2.4
		c0,2.4-4.3,4.6-8.8,4.6c-6.3,0-10.7-4.2-10.7-10.2c0-6.2,4.3-10.8,10.1-10.8c5.5,0,9.8,4.4,9.8,10.2c0,1.6-0.8,2.3-2.6,2.3
		L60,165.7L60,165.7z M67.7,161.7c-0.3-1.1-0.5-1.6-0.8-2.2c-0.7-1-1.8-1.5-3-1.5c-2,0-3.2,1.1-4.1,3.7H67.7z"/>
	<path class="st0" d="M76.6,156.8c0-2.2,1.1-3.5,2.8-3.5c1.4,0,2.1,0.6,2.8,2.2c1.6-1.7,3-2.4,5.2-2.4c4.9,0,8.7,4.5,8.7,10.4
		c0,6.1-3.9,10.7-9,10.7c-1.8,0-3-0.4-4.7-1.7v5.7c0,1.4,0,1.8-0.4,2.4c-0.4,0.9-1.5,1.5-2.5,1.5c-1.1,0-2.1-0.6-2.6-1.5
		c-0.4-0.7-0.4-1-0.4-2.4L76.6,156.8L76.6,156.8z M82.4,163.7c0,3,1.6,5.1,4,5.1c2.3,0,4-2.2,4-5.1c0-2.8-1.8-5-4-5
		C84,158.7,82.4,160.8,82.4,163.7z"/>
	<path class="st0" d="M104.7,165.7c0.9,2.4,2.4,3.5,4.7,3.5c1.4,0,1.8-0.1,4.8-1.6c0.4-0.2,0.8-0.3,1.3-0.3c1.2,0,2.4,1.2,2.4,2.4
		c0,2.4-4.3,4.6-8.8,4.6c-6.3,0-10.7-4.2-10.7-10.2c0-6.2,4.3-10.8,10.1-10.8c5.5,0,9.8,4.4,9.8,10.2c0,1.6-0.8,2.3-2.6,2.3
		L104.7,165.7L104.7,165.7z M112.4,161.7c-0.3-1.1-0.5-1.6-0.8-2.2c-0.7-1-1.8-1.5-3-1.5c-2,0-3.2,1.1-4.1,3.7H112.4z"/>
	<path class="st0" d="M140,172.1c0,6.4-3.9,10.2-10.4,10.2c-2.6,0-5-0.6-7-1.7c-1.2-0.7-1.8-1.5-1.8-2.7c0-1.4,1.2-2.6,2.7-2.6
		c0.5,0,0.5,0,2.6,0.7c1.2,0.4,2.7,0.7,3.6,0.7c1.9,0,3.4-0.7,4-2c0.4-0.7,0.6-1.4,0.7-3.2c-1.6,2-2.8,2.7-4.9,2.7
		c-5.2,0-9-4.3-9-10.4c0-6.1,3.9-10.7,9.1-10.7c2,0,3.2,0.6,4.8,2.3c0.8-1.6,1.6-2.2,2.8-2.2c1.7,0,2.8,1.3,2.8,3.2L140,172.1
		L140,172.1z M126.2,163.7c0,3,1.6,5.1,4,5.1c2.3,0,4-2.1,4-5s-1.7-5.1-4-5.1C127.8,158.7,126.2,160.7,126.2,163.7z"/>
	<path class="st0" d="M144.4,156.7c0-2,1.2-3.4,3-3.4c1.3,0,2.3,0.7,2.9,2.1c1.6-1.6,2.7-2.2,4-2.2c1.7,0,3,1.4,3,3
		c0,1.4-0.6,2-3,2.7c-3.2,1.1-4.1,2-4,3.9v7.4c0,1.4,0,1.8-0.4,2.4c-0.4,0.9-1.5,1.5-2.5,1.5c-1.1,0-2.1-0.6-2.6-1.5
		c-0.4-0.7-0.4-1-0.4-2.4V156.7z"/>
	<path class="st0" d="M178.2,170.7c0,2.1-1.2,3.5-3,3.5c-1.4,0-2.4-0.8-3-2.3c-1.5,1.8-2.7,2.4-4.8,2.4c-2.2,0-4.1-0.8-5.8-2.2
		c-2.3-2-3.5-4.8-3.5-8.4c0-3.2,1-5.7,3.1-7.8c1.8-1.8,3.8-2.7,6.1-2.7c2.1,0,3.3,0.6,5,2.3c0.6-1.6,1.5-2.2,2.9-2.2
		c1.6,0,2.9,1.3,2.9,3v14.4H178.2z M164,163.7c0,3.1,1.6,5.1,4.1,5.1c2.4,0,4-2.1,4-5.1s-1.6-5-4.1-5
		C165.6,158.7,164,160.7,164,163.7z"/>
</g>
</svg>
